<svg xmlns="http://www.w3.org/2000/svg" viewBox="0 0 512 512" role="img" aria-labelledby="title desc">
  <title id="title">Simple Photo Finish app icon</title>
  <desc id="desc">Purple icon showing a running athlete and stopwatch.</desc>
  <defs>
    <linearGradient id="bg" x1="74" y1="74" x2="438" y2="438" gradientUnits="userSpaceOnUse">
      <stop offset="0" stop-color="#4b145d"/>
      <stop offset=".55" stop-color="#9c2bbf"/>
      <stop offset="1" stop-color="#df4bd7"/>
    </linearGradient>
  </defs>
  <rect x="70" y="70" width="372" height="372" rx="78" fill="url(#bg)"/>
  <circle cx="282" cy="146" r="38" fill="#ffe7ff"/>
  <path fill="#ffe7ff" d="M248 193c7-14 24-20 39-13l62 30 53-48c10-9 26-8 35 2 9 11 8 27-2 36l-64 58c-9 8-22 10-33 5l-49-23-28 54 57 33c15 9 14 31-1 39l-106 53c-13 7-29 1-35-12-7-13-1-29 12-35l66-33-71-41c-14-8-19-26-12-40l31-65Z"/>
  <path fill="#ffe7ff" d="m216 203-86 20c-15 4-29-8-27-23 1-10 8-18 18-20l119-28-24 51Z"/>
  <path fill="#ffe7ff" d="m185 263-67-53c-12-10-30-2-31 14 0 8 3 16 10 21l77 61 11-43Z"/>
  <path fill="#ffe7ff" d="M184 306c-5 4-10 9-13 16l-45 76c-8 14 2 31 18 31 7 0 14-4 18-10l53-90-31-23Z"/>
  <path fill="#f6a3f2" d="M368 307a64 64 0 1 0 0 128 64 64 0 0 0 0-128Zm0 96a32 32 0 1 1 0-64 32 32 0 0 1 0 64Z"/>
  <path fill="#f6a3f2" d="M358 286h21v48h-21z"/>
  <path fill="#f6a3f2" d="M368 336v35l25-25 15 15-50 50-12-5v-70z"/>
</svg>
